<?xml version="1.0" encoding="utf-8"?>
<!-- Generator: Adobe Illustrator 24.0.0, SVG Export Plug-In . SVG Version: 6.00 Build 0)  -->
<svg version="1.1" id="Layer_1" xmlns="http://www.w3.org/2000/svg" xmlns:xlink="http://www.w3.org/1999/xlink" x="0px" y="0px"
	 viewBox="0 0 122.9 130.1" style="enable-background:new 0 0 122.9 130.1;" xml:space="preserve">
<style type="text/css">
	.st0{fill-rule:evenodd;clip-rule:evenodd;fill:#FFFFFF;}
</style>
<g>
	<path class="st0" d="M46.9,19.7h43.6l9.9,17.7h20.5c1.1,0,2,0.9,2,2v69.1c0,1.1-0.9,2-2,2H2c-1.1,0-2-0.9-2-2V39.4c0-1.1,0.9-2,2-2
		h9.2v-6.3h11.4v6.4h12.4c2.6-5.1,5.1-10.1,7.7-15.2C44.2,19.1,43.3,19.7,46.9,19.7L46.9,19.7z M110.1,46.2c3.3,0,5.9,2.6,5.9,5.9
		c0,3.3-2.6,5.9-5.9,5.9s-5.9-2.6-5.9-5.9C104.2,48.8,106.8,46.2,110.1,46.2L110.1,46.2L110.1,46.2z M66.6,53
		c9.9,0,17.9,8,17.9,17.9s-8,17.9-17.9,17.9s-17.9-8-17.9-17.9C48.8,61.1,56.8,53,66.6,53L66.6,53z M66.6,41.4
		c16.3,0,29.5,13.2,29.5,29.5c0,16.3-13.2,29.5-29.5,29.5c-16.3,0-29.5-13.2-29.5-29.5C37.1,54.6,50.3,41.4,66.6,41.4L66.6,41.4z"/>
</g>
</svg>
