<?xml version="1.0" encoding="utf-8"?>
<!-- Generator: Adobe Illustrator 24.0.0, SVG Export Plug-In . SVG Version: 6.00 Build 0)  -->
<svg version="1.1"
	 id="Capa_1" image-rendering="optimizeQuality" shape-rendering="geometricPrecision" text-rendering="geometricPrecision"
	 xmlns="http://www.w3.org/2000/svg" xmlns:xlink="http://www.w3.org/1999/xlink" x="0px" y="0px" viewBox="0 0 485 512"
	 style="enable-background:new 0 0 485 512;" xml:space="preserve">
<style type="text/css">
	.st0{fill-rule:evenodd;clip-rule:evenodd;fill:#FFFFFF;}
</style>
<path class="st0" d="M33.3,211.3H485v262.1c0,21.2-17.4,38.6-38.6,38.6H68.8c-21.2,0-38.6-17.4-38.6-38.6V212.2L0,120.1l65.6-18.6
	l33.8,90.9C99.4,192.4,33.3,211.3,33.3,211.3z M139.3,181l78.9-22.6l-33.7-90.7l-75.9,21.5L139.3,181z M258.1,147l89.1-25.5
	l-33.6-90.4l-86.1,24.4L258.1,147z M387,110.1l66.1-18.9L423,0l-66.4,18.9C356.6,18.9,387,110.1,387,110.1z M89.8,262.7h335.5
	c3.1,0,5.6,2.6,5.6,5.6V455c0,3-2.6,5.6-5.6,5.6H89.8c-3,0-5.6-2.5-5.6-5.6V268.3C84.2,265.2,86.7,262.7,89.8,262.7z M309.9,370.8
	c8.1-5.3,8.1-11.1,0-15.7l-84-48.3c-6.6-4.2-13.5-1.7-13.4,6.9l0.3,97.6c0.6,9.4,5.9,12,13.8,7.6L309.9,370.8L309.9,370.8z
	 M67.5,242.9h380.1c3.1,0,5.6,2.5,5.6,5.6v226.4c0,3-2.5,5.6-5.6,5.6H67.5c-3,0-5.6-2.5-5.6-5.6V248.4
	C61.9,245.4,64.4,242.9,67.5,242.9z"/>
</svg>
