<?xml version="1.0" encoding="utf-8"?>
<!-- Generator: Adobe Illustrator 24.0.0, SVG Export Plug-In . SVG Version: 6.00 Build 0)  -->
<svg version="1.1" id="Layer_1" xmlns="http://www.w3.org/2000/svg" xmlns:xlink="http://www.w3.org/1999/xlink" x="0px" y="0px"
	 viewBox="0 0 118.6 122.9" style="enable-background:new 0 0 118.6 122.9;" xml:space="preserve">
<style type="text/css">
	.st0{fill-rule:evenodd;clip-rule:evenodd;fill:#FFFFFF;}
</style>
<title>sculpture</title>
<path class="st0" d="M79.6,107.6c0-0.2,0-0.3,0-0.5c1.3-13.7,20.5-30.6,12.6-43c-2.1-3.3-6.9-4.1-10.5-5.7
	c-5.5-2.5-9.3-5.1-11.6-8.2c0.2-0.2,0.4-0.4,0.6-0.6c1.8-1.6,3.4-3.5,4.5-5.6c0.9-1.9,1.2-3.9,1.1-6h0.4c0.7,0.1,1.4-0.1,2.1-0.5
	l0.1-0.1c0.5-0.4,0.8-1,1-1.6c0.6-1.5,1.1-3.1,1.6-4.6c0.3-1,0.3-2,0.1-3c-0.2-0.8-0.7-1.4-1.4-1.8c-0.6-0.3-1.2-0.4-1.8-0.4
	c5.1-8.5,0.2-22-10.1-22.5c-8.1-8.1-25.2-2.1-32,9.8c4.9,1.4,3.5,6.9,3.1,11.8c-1.6-0.2-2.8,0.3-3.5,2.4c0,0.1-0.1,0.2-0.1,0.3
	c0,0.4-0.1,1-0.1,1.6s0,1.5,0,1.9l0,0c0.1,1.3,0.3,2.5,0.8,3.7c0.4,1,1.1,1.9,2,2.5c0.6,0.3,1.2,0.5,1.9,0.5h0.3
	c0.1,2.3,0.6,4.5,1.7,6.5c1.2,1.9,2.7,3.7,4.5,5.1c0.4,0.4,0.9,0.8,1.4,1.1c-2.3,2.8-6,5.2-11.2,7.6c-3.6,1.7-8.4,2.4-10.5,5.7
	c-7.9,12.4,11.3,29.3,12.6,43c0,0.1,0,0.3,0,0.5h14.1v9h-9v6.3h30.4v-6.3h-9v-9L79.6,107.6z"/>
</svg>
